<svg width="25" height="14" viewBox="0 0 25 14" fill="none" xmlns="http://www.w3.org/2000/svg">
<path id="Vector" d="M8.59235 2.78131e-05C8.369 -0.00119358 8.14818 0.0470577 7.94588 0.141286C7.74359 0.235514 7.56488 0.373359 7.42271 0.544834C7.39694 0.574168 7.37341 0.605388 7.35234 0.638229L0.114027 12.817C0.0416552 12.9353 0.00232572 13.0707 0.000100013 13.2093C-0.00212569 13.3478 0.0328331 13.4844 0.101367 13.605C0.1699 13.7255 0.269524 13.8257 0.389951 13.8952C0.510378 13.9646 0.647243 14.0008 0.786414 14H24.2167C24.3556 14.0002 24.4921 13.9637 24.6121 13.894C24.7321 13.8243 24.8312 13.7241 24.8994 13.6036C24.9676 13.4831 25.0022 13.3467 24.9999 13.2085C24.9975 13.0702 24.9582 12.9351 24.886 12.817L20.8173 5.99912C20.7816 5.83745 20.695 5.69132 20.5702 5.58195L19.0925 3.10698C19.0689 3.0744 19.0427 3.0437 19.0143 3.01514C18.8852 2.86089 18.7236 2.7368 18.5409 2.65164C18.3582 2.56647 18.159 2.52233 17.9573 2.52233C17.7556 2.52233 17.5563 2.56647 17.3737 2.65164C17.191 2.7368 17.0294 2.86089 16.9002 3.01514C16.8745 3.04398 16.851 3.07467 16.8299 3.10698L14.059 7.7425L9.83548 0.638229C9.81441 0.605388 9.79088 0.574168 9.76511 0.544834C9.62239 0.373203 9.44314 0.23529 9.24031 0.141069C9.03749 0.0468475 8.81616 -0.00132724 8.59235 2.78131e-05ZM8.58922 1.60331L10.7706 5.26752L10.1467 5.88705L9.13026 4.88616C8.98404 4.74309 8.78721 4.66292 8.58218 4.66292C8.37715 4.66292 8.18033 4.74309 8.03411 4.88616L7.16939 5.73761L6.64712 4.87526L8.58922 1.6002V1.60331ZM17.962 4.26819L18.994 5.99756L17.962 6.7852L16.9299 6.00068L17.962 4.26819ZM5.74331 6.39605L6.34689 7.39227C6.40786 7.49423 6.49144 7.58096 6.59124 7.64583C6.69104 7.71071 6.80442 7.75201 6.92272 7.76658C7.04101 7.78115 7.16108 7.7686 7.27376 7.72989C7.38644 7.69119 7.48873 7.62735 7.57282 7.54326L8.58922 6.53147L9.58998 7.54326C9.66266 7.61621 9.74914 7.67411 9.84441 7.71362C9.93969 7.75313 10.0419 7.77347 10.1451 7.77347C10.2483 7.77347 10.3505 7.75313 10.4458 7.71362C10.541 7.67411 10.6275 7.61621 10.7002 7.54326L11.5915 6.65133L15.0316 12.4372H2.1562L5.74174 6.39761L5.74331 6.39605ZM19.7977 7.34246L22.8422 12.4372H16.8486L14.9722 9.2773L16.1231 7.34713L17.4882 8.38226C17.6243 8.48552 17.7908 8.54145 17.962 8.54145C18.1331 8.54145 18.2996 8.48552 18.4358 8.38226L19.7977 7.34246Z" fill="#60A5FA"/>
</svg>
